<?xml version="1.0" encoding="utf-8"?>
<!-- Generator: Adobe Illustrator 17.0.0, SVG Export Plug-In . SVG Version: 6.00 Build 0)  -->
<!DOCTYPE svg PUBLIC "-//W3C//DTD SVG 1.0//EN" "http://www.w3.org/TR/2001/REC-SVG-20010904/DTD/svg10.dtd">
<svg version="1.0" id="Layer_1" xmlns="http://www.w3.org/2000/svg" xmlns:xlink="http://www.w3.org/1999/xlink" x="0px" y="0px"
	 width="126px" height="70px" viewBox="566.5 -98.5 126 70" enable-background="new 566.5 -98.5 126 70" xml:space="preserve">
<path fill="#FFFFFF" d="M605-92.01c-1.25,0.55-2.6,0.93-4.01,1.1c1.44-0.86,2.55-2.23,3.07-3.86c-1.35,0.8-2.84,1.38-4.43,1.69
	c-1.27-1.36-3.09-2.2-5.09-2.2c-3.85,0-6.98,3.12-6.98,6.98c0,0.55,0.06,1.08,0.18,1.59c-5.8-0.29-10.94-3.07-14.38-7.29
	c-0.6,1.03-0.94,2.23-0.94,3.51c0,2.42,1.23,4.56,3.1,5.81c-1.14-0.04-2.22-0.35-3.16-0.87c0,0.03,0,0.06,0,0.09
	c0,3.38,2.4,6.2,5.6,6.84c-0.59,0.16-1.2,0.24-1.84,0.24c-0.45,0-0.89-0.04-1.31-0.13c0.89,2.77,3.46,4.79,6.52,4.84
	c-2.39,1.87-5.4,2.99-8.66,2.99c-0.56,0-1.12-0.03-1.66-0.1c3.09,1.98,6.75,3.13,10.69,3.13c12.83,0,19.85-10.63,19.85-19.85
	c0-0.3-0.01-0.6-0.02-0.9C602.88-89.38,604.06-90.61,605-92.01z"/>
<g>
	<path fill="#FFFFFF" d="M640.16-95.18h-24.41c-0.84,0-1.51,0.68-1.51,1.51v24.41c0,0.84,0.68,1.52,1.51,1.52h13.14v-10.63h-3.58
		v-4.14h3.58v-3.05c0-3.54,2.17-5.47,5.33-5.47c1.52,0,2.82,0.11,3.2,0.16v3.7l-2.19,0c-1.72,0-2.05,0.82-2.05,2.02v2.64h4.1
		l-0.53,4.14h-3.57v10.63h6.99c0.84,0,1.52-0.68,1.52-1.52v-24.41C641.67-94.51,640.99-95.18,640.16-95.18z"/>
</g>
<g>
	<path fill="#FFFFFF" d="M684.17-95.07h-23.15c-1.11,0-2.01,0.88-2.01,1.96v23.25c0,1.08,0.9,1.96,2.01,1.96h23.15
		c1.11,0,2.01-0.88,2.01-1.96v-23.25C686.18-94.19,685.28-95.07,684.17-95.07z M667.07-71.92h-4.03v-12.97h4.03V-71.92z
		 M665.05-86.65c-1.29,0-2.34-1.05-2.34-2.34c0-1.29,1.05-2.34,2.34-2.34c1.29,0,2.34,1.05,2.34,2.34
		C667.39-87.7,666.34-86.65,665.05-86.65z M682.16-71.92h-4.02v-6.3c0-1.51-0.03-3.44-2.09-3.44c-2.1,0-2.42,1.64-2.42,3.33v6.41
		h-4.03v-12.97h3.87v1.77h0.05c0.54-1.02,1.85-2.09,3.81-2.09c4.08,0,4.83,2.68,4.83,6.18V-71.92z"/>
</g>
<path fill="#CECECE" d="M605-60.23c-1.25,0.55-2.6,0.93-4.01,1.1c1.44-0.86,2.55-2.23,3.07-3.86c-1.35,0.8-2.84,1.38-4.43,1.69
	c-1.27-1.36-3.09-2.2-5.09-2.2c-3.85,0-6.98,3.12-6.98,6.98c0,0.55,0.06,1.08,0.18,1.59c-5.8-0.29-10.94-3.07-14.38-7.29
	c-0.6,1.03-0.94,2.23-0.94,3.51c0,2.42,1.23,4.56,3.1,5.81c-1.14-0.04-2.22-0.35-3.16-0.87c0,0.03,0,0.06,0,0.09
	c0,3.38,2.4,6.2,5.6,6.84c-0.59,0.16-1.2,0.24-1.84,0.24c-0.45,0-0.89-0.04-1.31-0.13c0.89,2.77,3.46,4.79,6.52,4.84
	c-2.39,1.87-5.4,2.99-8.66,2.99c-0.56,0-1.12-0.03-1.66-0.1c3.09,1.98,6.75,3.13,10.69,3.13c12.83,0,19.85-10.63,19.85-19.85
	c0-0.3-0.01-0.6-0.02-0.9C602.88-57.6,604.06-58.83,605-60.23z"/>
<g>
	<path fill="#CECECE" d="M640.16-63.41h-24.41c-0.84,0-1.51,0.68-1.51,1.51v24.41c0,0.84,0.68,1.52,1.51,1.52h13.14v-10.63h-3.58
		v-4.14h3.58v-3.05c0-3.54,2.17-5.47,5.33-5.47c1.52,0,2.82,0.11,3.2,0.16v3.7l-2.19,0c-1.72,0-2.05,0.82-2.05,2.02v2.64h4.1
		l-0.53,4.14h-3.57v10.63h6.99c0.84,0,1.52-0.68,1.52-1.52v-24.41C641.67-62.73,640.99-63.41,640.16-63.41z"/>
</g>
<g>
	<path fill="#CECECE" d="M684.17-63.29h-23.15c-1.11,0-2.01,0.88-2.01,1.96v23.25c0,1.08,0.9,1.96,2.01,1.96h23.15
		c1.11,0,2.01-0.88,2.01-1.96v-23.25C686.18-62.41,685.28-63.29,684.17-63.29z M667.07-40.14h-4.03V-53.1h4.03V-40.14z
		 M665.05-54.88c-1.29,0-2.34-1.05-2.34-2.34c0-1.29,1.05-2.34,2.34-2.34c1.29,0,2.34,1.05,2.34,2.34
		C667.39-55.92,666.34-54.88,665.05-54.88z M682.16-40.14h-4.02v-6.3c0-1.51-0.03-3.44-2.09-3.44c-2.1,0-2.42,1.64-2.42,3.33v6.41
		h-4.03V-53.1h3.87v1.77h0.05c0.54-1.02,1.85-2.09,3.81-2.09c4.08,0,4.83,2.68,4.83,6.18V-40.14z"/>
</g>
</svg>
