<?xml version="1.0" encoding="utf-8"?>
<!-- Generator: Adobe Illustrator 17.0.0, SVG Export Plug-In . SVG Version: 6.00 Build 0)  -->
<!DOCTYPE svg PUBLIC "-//W3C//DTD SVG 1.0//EN" "http://www.w3.org/TR/2001/REC-SVG-20010904/DTD/svg10.dtd">
<svg version="1.0" id="Layer_1" xmlns="http://www.w3.org/2000/svg" xmlns:xlink="http://www.w3.org/1999/xlink" x="0px" y="0px"
	 width="126px" height="34px" viewBox="0 0 126 34" enable-background="new 0 0 126 34" xml:space="preserve">
<path fill="#FFFFFF" d="M36.82,6.1c-1.25,0.55-2.6,0.93-4.01,1.1c1.44-0.86,2.55-2.23,3.07-3.86c-1.35,0.8-2.84,1.38-4.43,1.69
	c-1.27-1.36-3.09-2.2-5.09-2.2c-3.85,0-6.98,3.12-6.98,6.98c0,0.55,0.06,1.08,0.18,1.59c-5.8-0.29-10.94-3.07-14.38-7.29
	c-0.6,1.03-0.94,2.23-0.94,3.51c0,2.42,1.23,4.56,3.1,5.81c-1.14-0.04-2.22-0.35-3.16-0.87c0,0.03,0,0.06,0,0.09
	c0,3.38,2.4,6.2,5.6,6.84c-0.59,0.16-1.2,0.24-1.84,0.24c-0.45,0-0.89-0.04-1.31-0.13c0.89,2.77,3.46,4.79,6.52,4.84
	c-2.39,1.87-5.4,2.99-8.66,2.99c-0.56,0-1.12-0.03-1.66-0.1c3.09,1.98,6.75,3.13,10.69,3.13c12.83,0,19.85-10.63,19.85-19.85
	c0-0.3-0.01-0.6-0.02-0.9C34.7,8.73,35.88,7.5,36.82,6.1z"/>
<g>
	<path fill="#FFFFFF" d="M71.27,2.83H46.86c-0.84,0-1.51,0.68-1.51,1.51v24.41c0,0.84,0.68,1.52,1.51,1.52H60V19.64h-3.58V15.5H60
		v-3.05c0-3.54,2.17-5.47,5.33-5.47c1.52,0,2.82,0.11,3.2,0.16v3.7h-2.19c-1.72,0-2.05,0.82-2.05,2.02v2.64h4.1l-0.53,4.14h-3.57
		v10.63h6.99c0.84,0,1.52-0.68,1.52-1.52V4.34C72.78,3.5,72.1,2.83,71.27,2.83z"/>
</g>
<g>
	<path fill="#FFFFFF" d="M115.87,2.83H92.72c-1.11,0-2.01,0.88-2.01,1.96v23.25c0,1.08,0.9,1.96,2.01,1.96h23.15
		c1.11,0,2.01-0.88,2.01-1.96V4.79C117.88,3.71,116.98,2.83,115.87,2.83z M98.77,25.98h-4.03V13.01h4.03V25.98z M96.75,11.25
		c-1.29,0-2.34-1.05-2.34-2.34c0-1.29,1.05-2.34,2.34-2.34c1.29,0,2.34,1.05,2.34,2.34C99.09,10.2,98.04,11.25,96.75,11.25z
		 M113.86,25.98h-4.02v-6.3c0-1.51-0.03-3.44-2.09-3.44c-2.1,0-2.42,1.64-2.42,3.33v6.41h-4.03V13.01h3.87v1.77h0.05
		c0.54-1.02,1.85-2.09,3.81-2.09c4.08,0,4.83,2.68,4.83,6.18L113.86,25.98L113.86,25.98z"/>
</g>
</svg>
